<svg width="22" height="25" viewBox="0 0 22 25" fill="none" xmlns="http://www.w3.org/2000/svg">
<path d="M17.0045 4.76139C15.1339 2.69889 12.6429 1.56451 9.99554 1.56451C4.53125 1.56451 0.0848214 6.45559 0.0848214 12.4663C0.0848214 14.3864 0.540179 16.2623 1.40625 17.9172L0 23.5645L5.25446 22.0471C6.70089 22.9163 8.33036 23.373 9.99107 23.373H9.99554C15.4554 23.373 20 18.4819 20 12.4712C20 9.55916 18.875 6.82389 17.0045 4.76139V4.76139ZM9.99554 21.5364C8.51339 21.5364 7.0625 21.0993 5.79911 20.2743L5.5 20.0779L2.38393 20.9766L3.21429 17.6324L3.01786 17.2886C2.19196 15.8449 1.75893 14.1801 1.75893 12.4663C1.75893 7.4721 5.45536 3.40603 10 3.40603C12.2009 3.40603 14.2679 4.34889 15.8214 6.06273C17.375 7.77657 18.3304 10.0502 18.3259 12.4712C18.3259 17.4703 14.5357 21.5364 9.99554 21.5364V21.5364ZM14.5134 14.7498C14.2679 14.6123 13.0491 13.9542 12.8214 13.8659C12.5938 13.7725 12.4286 13.7284 12.2634 14.0034C12.0982 14.2784 11.625 14.8873 11.4777 15.0739C11.3348 15.2556 11.1875 15.2801 10.942 15.1426C9.48661 14.3422 8.53125 13.7136 7.57143 11.9016C7.31696 11.4203 7.82589 11.4547 8.29911 10.4136C8.37946 10.2319 8.33929 10.0748 8.27679 9.93728C8.21429 9.79978 7.71875 8.45916 7.51339 7.91407C7.3125 7.38371 7.10714 7.45737 6.95536 7.44755C6.8125 7.43773 6.64732 7.43773 6.48214 7.43773C6.31696 7.43773 6.04911 7.50648 5.82143 7.77657C5.59375 8.05157 4.95536 8.7096 4.95536 10.0502C4.95536 11.3909 5.84375 12.6873 5.96429 12.869C6.08929 13.0507 7.70982 15.8007 10.1964 16.9842C11.7679 17.7306 12.3839 17.7944 13.1696 17.6667C13.6473 17.5882 14.6339 17.0087 14.8393 16.3703C15.0446 15.7319 15.0446 15.1868 14.9821 15.0739C14.9241 14.9511 14.7589 14.8824 14.5134 14.7498Z" fill="#F2E6E6"/>
</svg>
